<mxfile host="app.diagrams.net" modified="2023-12-04T10:57:54.120Z" agent="Mozilla/5.0 (Windows NT 10.0; Win64; x64) AppleWebKit/537.36 (KHTML, like Gecko) Chrome/119.0.0.0 Safari/537.36" etag="GZX1QqqfXMBqBjQxbi_i" version="22.1.5" type="device">
  <diagram name="Page-1" id="10a91c8b-09ff-31b1-d368-03940ed4cc9e">
    <mxGraphModel dx="1434" dy="738" grid="1" gridSize="10" guides="1" tooltips="1" connect="1" arrows="1" fold="1" page="1" pageScale="1" pageWidth="1100" pageHeight="850" background="none" math="0" shadow="0">
      <root>
        <mxCell id="0" />
        <mxCell id="1" parent="0" />
        <mxCell id="23mcxH1-BJxqDGaFhh-u-22" value="" style="rounded=0;whiteSpace=wrap;html=1;fillColor=#f5f5f5;strokeColor=#666666;fontColor=#333333;fontSize=19;" parent="1" vertex="1">
          <mxGeometry width="1100" height="190" as="geometry" />
        </mxCell>
        <mxCell id="23mcxH1-BJxqDGaFhh-u-23" value="" style="rounded=0;whiteSpace=wrap;html=1;fillColor=#f5f5f5;strokeColor=#666666;fontColor=#333333;fontSize=19;" parent="1" vertex="1">
          <mxGeometry y="360" width="1100" height="170" as="geometry" />
        </mxCell>
        <mxCell id="23mcxH1-BJxqDGaFhh-u-21" value="" style="rounded=0;whiteSpace=wrap;html=1;fillColor=#dae8fc;strokeColor=#6c8ebf;fontSize=19;" parent="1" vertex="1">
          <mxGeometry y="190" width="1100" height="170" as="geometry" />
        </mxCell>
        <mxCell id="23mcxH1-BJxqDGaFhh-u-2" value="" style="ellipse;whiteSpace=wrap;html=1;aspect=fixed;fontSize=19;" parent="1" vertex="1">
          <mxGeometry x="580" y="37.5" width="80" height="80" as="geometry" />
        </mxCell>
        <mxCell id="23mcxH1-BJxqDGaFhh-u-4" value="Key1" style="ellipse;whiteSpace=wrap;html=1;aspect=fixed;fontSize=19;" parent="1" vertex="1">
          <mxGeometry x="340" y="237.5" width="80" height="80" as="geometry" />
        </mxCell>
        <mxCell id="23mcxH1-BJxqDGaFhh-u-5" value="Key2" style="ellipse;whiteSpace=wrap;html=1;aspect=fixed;fontSize=19;" parent="1" vertex="1">
          <mxGeometry x="820" y="237.5" width="80" height="80" as="geometry" />
        </mxCell>
        <mxCell id="23mcxH1-BJxqDGaFhh-u-7" value="Value1: [np1; np2]" style="rounded=1;whiteSpace=wrap;html=1;fontSize=19;" parent="1" vertex="1">
          <mxGeometry x="160" y="390" width="200" height="70" as="geometry" />
        </mxCell>
        <mxCell id="23mcxH1-BJxqDGaFhh-u-8" value="Value2: [np1; np3]" style="rounded=1;whiteSpace=wrap;html=1;fontSize=19;" parent="1" vertex="1">
          <mxGeometry x="390" y="390" width="210" height="70" as="geometry" />
        </mxCell>
        <mxCell id="23mcxH1-BJxqDGaFhh-u-9" value="Value3: [np4]" style="rounded=1;whiteSpace=wrap;html=1;fontSize=19;" parent="1" vertex="1">
          <mxGeometry x="755" y="390" width="210" height="70" as="geometry" />
        </mxCell>
        <mxCell id="23mcxH1-BJxqDGaFhh-u-11" value="" style="endArrow=none;html=1;rounded=0;entryX=0;entryY=1;entryDx=0;entryDy=0;fontSize=19;" parent="1" source="23mcxH1-BJxqDGaFhh-u-4" target="23mcxH1-BJxqDGaFhh-u-2" edge="1">
          <mxGeometry width="50" height="50" relative="1" as="geometry">
            <mxPoint x="430" y="247.5" as="sourcePoint" />
            <mxPoint x="550" y="177.5" as="targetPoint" />
          </mxGeometry>
        </mxCell>
        <mxCell id="23mcxH1-BJxqDGaFhh-u-12" value="" style="endArrow=none;html=1;rounded=0;entryX=0;entryY=0;entryDx=0;entryDy=0;exitX=1;exitY=1;exitDx=0;exitDy=0;fontSize=19;" parent="1" source="23mcxH1-BJxqDGaFhh-u-2" target="23mcxH1-BJxqDGaFhh-u-5" edge="1">
          <mxGeometry width="50" height="50" relative="1" as="geometry">
            <mxPoint x="630" y="392.5" as="sourcePoint" />
            <mxPoint x="814" y="247.5" as="targetPoint" />
          </mxGeometry>
        </mxCell>
        <mxCell id="23mcxH1-BJxqDGaFhh-u-13" value="" style="endArrow=none;html=1;rounded=0;entryX=0;entryY=1;entryDx=0;entryDy=0;exitX=0.5;exitY=0;exitDx=0;exitDy=0;fontSize=19;" parent="1" source="23mcxH1-BJxqDGaFhh-u-7" target="23mcxH1-BJxqDGaFhh-u-4" edge="1">
          <mxGeometry width="50" height="50" relative="1" as="geometry">
            <mxPoint x="230" y="387.5" as="sourcePoint" />
            <mxPoint x="250" y="337.5" as="targetPoint" />
          </mxGeometry>
        </mxCell>
        <mxCell id="23mcxH1-BJxqDGaFhh-u-14" value="" style="endArrow=none;html=1;rounded=0;entryX=1;entryY=1;entryDx=0;entryDy=0;exitX=0.5;exitY=0;exitDx=0;exitDy=0;fontSize=19;" parent="1" source="23mcxH1-BJxqDGaFhh-u-8" target="23mcxH1-BJxqDGaFhh-u-4" edge="1">
          <mxGeometry width="50" height="50" relative="1" as="geometry">
            <mxPoint x="300" y="409.5" as="sourcePoint" />
            <mxPoint x="442" y="327.5" as="targetPoint" />
          </mxGeometry>
        </mxCell>
        <mxCell id="23mcxH1-BJxqDGaFhh-u-15" value="" style="endArrow=none;html=1;rounded=0;entryX=0.5;entryY=1;entryDx=0;entryDy=0;exitX=0.5;exitY=0;exitDx=0;exitDy=0;fontSize=19;" parent="1" source="23mcxH1-BJxqDGaFhh-u-9" target="23mcxH1-BJxqDGaFhh-u-5" edge="1">
          <mxGeometry width="50" height="50" relative="1" as="geometry">
            <mxPoint x="860" y="390" as="sourcePoint" />
            <mxPoint x="910" y="307.5" as="targetPoint" />
          </mxGeometry>
        </mxCell>
        <mxCell id="23mcxH1-BJxqDGaFhh-u-16" value="" style="endArrow=none;dashed=1;html=1;dashPattern=1 3;strokeWidth=2;rounded=0;fontSize=19;" parent="1" edge="1">
          <mxGeometry width="50" height="50" relative="1" as="geometry">
            <mxPoint x="10" y="190" as="sourcePoint" />
            <mxPoint x="1090" y="190" as="targetPoint" />
          </mxGeometry>
        </mxCell>
        <mxCell id="23mcxH1-BJxqDGaFhh-u-17" value="" style="endArrow=none;dashed=1;html=1;dashPattern=1 3;strokeWidth=2;rounded=0;fontSize=19;" parent="1" edge="1">
          <mxGeometry width="50" height="50" relative="1" as="geometry">
            <mxPoint x="5" y="360" as="sourcePoint" />
            <mxPoint x="1095" y="360" as="targetPoint" />
          </mxGeometry>
        </mxCell>
        <mxCell id="23mcxH1-BJxqDGaFhh-u-18" value="&lt;b style=&quot;font-size: 19px;&quot;&gt;ROOT&lt;/b&gt;" style="text;html=1;strokeColor=none;fillColor=none;align=center;verticalAlign=middle;whiteSpace=wrap;rounded=0;fontSize=19;" parent="1" vertex="1">
          <mxGeometry x="50" y="70" width="60" height="30" as="geometry" />
        </mxCell>
        <mxCell id="23mcxH1-BJxqDGaFhh-u-19" value="&lt;b style=&quot;font-size: 19px;&quot;&gt;KEYS&lt;/b&gt;" style="text;html=1;strokeColor=none;fillColor=none;align=center;verticalAlign=middle;whiteSpace=wrap;rounded=0;fontSize=19;" parent="1" vertex="1">
          <mxGeometry x="50" y="260" width="60" height="30" as="geometry" />
        </mxCell>
        <mxCell id="23mcxH1-BJxqDGaFhh-u-20" value="&lt;b style=&quot;font-size: 19px;&quot;&gt;VALUES&lt;/b&gt;" style="text;html=1;strokeColor=none;fillColor=none;align=center;verticalAlign=middle;whiteSpace=wrap;rounded=0;fontSize=19;" parent="1" vertex="1">
          <mxGeometry x="50" y="402.5" width="60" height="30" as="geometry" />
        </mxCell>
      </root>
    </mxGraphModel>
  </diagram>
</mxfile>
